<?xml version="1.0" encoding="UTF-8" standalone="no"?>
<!DOCTYPE svg PUBLIC "-//W3C//DTD SVG 1.1//EN" "http://www.w3.org/Graphics/SVG/1.1/DTD/svg11.dtd">
<svg width="100%" height="100%" viewBox="0 0 398 536" version="1.1" xmlns="http://www.w3.org/2000/svg" xmlns:xlink="http://www.w3.org/1999/xlink" xml:space="preserve" xmlns:serif="http://www.serif.com/" style="fill-rule:evenodd;clip-rule:evenodd;stroke-miterlimit:10;">
    <g>
        <path d="M68.5,64C68.5,64 23.2,56 12.1,104.2C0.4,154.8 39.1,150.9 39.1,150.9L68.5,64Z" style="fill:rgb(224,222,220);fill-rule:nonzero;"/>
        <g>
            <path d="M23.9,86.2C15.4,85.9 8.4,112 10.8,121.4C11.7,124.9 20.8,127.7 24.8,117.7C27.7,110.4 34.5,86.5 23.9,86.2Z" style="fill:rgb(4,0,0);fill-rule:nonzero;stroke:rgb(4,0,0);stroke-width:1.35px;"/>
            <path d="M17.6,94C15.7,93.4 13.6,98.5 12.9,100.3C11.1,105.6 15,105.4 17.3,102.3C18.5,100.7 19.5,94.7 17.6,94Z" style="fill:white;fill-rule:nonzero;"/>
        </g>
        <path d="M46.3,487.8C51.5,495.1 87.9,494.2 92.4,486.5C96.6,479.4 71,471.6 61.7,470.4C47.6,468.6 42.6,482.5 46.3,487.8Z" style="fill:rgb(184,147,127);fill-rule:nonzero;"/>
        <path d="M351,446C356.2,453.3 380.4,449.7 385,442C389.2,434.9 375.7,429.8 366.4,428.6C352.3,426.8 347.3,440.7 351,446Z" style="fill:rgb(184,147,127);fill-rule:nonzero;"/>
        <path d="M189.6,13.4C189.6,13.4 7.5,4.5 28.6,231C34.9,299 -15.2,413.8 57.8,470.8C57.8,470.8 159.9,532.5 296.7,512.3C316.7,509.3 342.2,502.3 359.9,455.2C382.2,395.7 366.5,333.7 346.7,289.7C324.4,240 325.5,183.9 327.1,174.4C354.3,14.2 189.6,13.4 189.6,13.4Z" style="fill:rgb(251,159,164);fill-rule:nonzero;"/>
        <path d="M282.3,38.8C301.5,33.8 314.9,28.3 325.7,33.8C356.2,49.5 320.8,79.2 313.3,84.8C302.3,93.2 268.4,42.4 282.3,38.8Z" style="fill:rgb(251,159,164);fill-rule:nonzero;"/>
        <path d="M306,40.5C287.2,44.7 286.4,54.2 291.2,56.9C294,58.5 292,48.8 304.8,53.1C310,54.8 302.3,67.4 316.9,53.3C324.7,45.6 310.1,39.6 306,40.5Z" style="fill:rgb(221,116,122);fill-rule:nonzero;"/>
        <path d="M137.9,29.2C115,30.9 61.8,57.7 87.9,123.4C97,146.4 192.5,133.7 193.7,69.4C194.1,42.6 158.1,27.7 137.9,29.2Z" style="fill:rgb(224,222,220);fill-rule:nonzero;"/>
        <path d="M109.9,51.8C88.5,53.7 83.3,84 91.3,91.1C95.8,95.1 111.4,99.7 119.8,72.1C122.5,63.3 117.8,51 109.9,51.8Z" style="fill:rgb(4,0,0);fill-rule:nonzero;stroke:rgb(4,0,0);stroke-width:1.35px;"/>
        <path d="M101.7,57.4C98.6,56.5 92.9,64.4 94.6,67.7C95.2,68.9 97.8,70.6 99.9,69C102.2,67.2 107.8,59.1 101.7,57.4Z" style="fill:white;fill-rule:nonzero;"/>
        <path d="M74.6,130.1C34.9,122.3 30,165 43.9,172.3C54,177.7 82.7,168.8 87.5,158.9C92.2,148.9 95,134.1 74.6,130.1Z" style="fill:rgb(184,147,127);fill-rule:nonzero;"/>
        <path d="M48,126.4C35.5,130.7 36.2,151.8 42.9,152.4C50.5,153.1 63.9,137.7 67.1,131.5C69.5,126.9 53,124.7 48,126.4Z" style="fill:rgb(4,0,0);fill-rule:nonzero;"/>
        <path d="M52.5,169.9C49.3,171.3 49.6,188.7 55.8,191.4C75.4,199.7 76.7,171 72.9,166.5C70,162.9 54.7,168.9 52.5,169.9Z" style="fill:rgb(224,222,220);fill-rule:nonzero;"/>
        <path d="M272,269.2C260.8,269.7 252.3,292.5 255.1,303.5C256.6,309.4 268,308.5 266.4,313.1C263.7,320.7 283.8,326 287.6,317.8C306.9,277 282.3,268.8 272,269.2Z" style="fill:rgb(184,147,127);fill-rule:nonzero;"/>
        <path d="M251.8,497.4C212.1,493.1 200.1,512.1 207.4,519.2C215.1,526.7 245.5,524.5 262.1,523.1C268.7,522.6 261.8,498.5 251.8,497.4Z" style="fill:rgb(184,147,127);fill-rule:nonzero;"/>
    </g>
</svg>
